<svg width="15" height="15" viewBox="0 0 15 15" fill="none" xmlns="http://www.w3.org/2000/svg">
<path d="M2.206 12.9375C2.61209 12.9375 2.94129 12.6157 2.94129 12.2188C2.94129 11.8218 2.61209 11.5 2.206 11.5C1.79991 11.5 1.4707 11.8218 1.4707 12.2188C1.4707 12.6157 1.79991 12.9375 2.206 12.9375Z" fill="#0172B6"/>
<path d="M1.4707 1.4375H2.94129V7.90625H1.4707V1.4375Z" fill="#0172B6"/>
<path d="M3.67647 0H0.735294C0.540282 0 0.353257 0.0757252 0.215363 0.210517C0.0774682 0.345309 0 0.528126 0 0.71875V13.6562C0 13.8469 0.0774682 14.0297 0.215363 14.1645C0.353257 14.2993 0.540282 14.375 0.735294 14.375H3.67647C3.87148 14.375 4.05851 14.2993 4.1964 14.1645C4.3343 14.0297 4.41176 13.8469 4.41176 13.6562V0.71875C4.41176 0.528126 4.3343 0.345309 4.1964 0.210517C4.05851 0.0757252 3.87148 0 3.67647 0ZM3.67647 13.6562H0.735294V0.71875H3.67647V13.6562Z" fill="#0172B6"/>
<path d="M8.82399 0.71875V5.75H6.61811V0.71875H8.82399ZM9.55928 0H5.88281V6.46875H9.55928V0Z" fill="#0172B6"/>
<path d="M13.9705 0.71875V5.75H11.7646V0.71875H13.9705ZM14.7058 0H11.0293V6.46875H14.7058V0Z" fill="#0172B6"/>
<path d="M8.82399 8.625V13.6563H6.61811V8.625H8.82399ZM9.55928 7.90625H5.88281V14.375H9.55928V7.90625Z" fill="#0172B6"/>
<path d="M13.9705 8.625V13.6563H11.7646V8.625H13.9705ZM14.7058 7.90625H11.0293V14.375H14.7058V7.90625Z" fill="#0172B6"/>
</svg>
